<?xml version="1.0" encoding="UTF-8" standalone="no"?><!DOCTYPE svg PUBLIC "-//W3C//DTD SVG 1.1//EN" "http://www.w3.org/Graphics/SVG/1.1/DTD/svg11.dtd"><svg width="100%" height="100%" viewBox="0 0 87 74" version="1.1" xmlns="http://www.w3.org/2000/svg" xmlns:xlink="http://www.w3.org/1999/xlink" xml:space="preserve" xmlns:serif="http://www.serif.com/" style="fill-rule:evenodd;clip-rule:evenodd;stroke-miterlimit:1.5;"><path d="M60.209,34.051l0.491,4.501c-0,7.2 -1.467,13.433 -4.4,18.7c-2.933,5.266 -7.017,9.3 -12.25,12.1c-5.233,2.8 -11.183,4.2 -17.85,4.2l-26.2,-0l-0,-70l26.2,-0c6.667,-0 12.617,1.4 17.85,4.2c4.292,2.296 7.81,5.422 10.32,9.541l-10.209,8.355c-0.682,-1.665 -1.61,-3.136 -2.711,-4.446c-3.5,-4.167 -8.583,-6.25 -15.25,-6.25l-13.4,-0l-0,47.2l13.4,-0c6.667,-0 11.75,-2.084 15.25,-6.25c2.275,-2.709 3.811,-6.101 4.517,-10.195l14.242,-11.656Z" style="fill:#68c232;"/><path d="M19.504,32.222l14.12,12.819l45.854,-37.529" style="fill:none;stroke:#68c232;stroke-width:8.33px;"/></svg>