<?xml version="1.0" encoding="UTF-8" standalone="no"?><!DOCTYPE svg PUBLIC "-//W3C//DTD SVG 1.1//EN" "http://www.w3.org/Graphics/SVG/1.1/DTD/svg11.dtd"><svg width="100%" height="100%" viewBox="0 0 506 75" version="1.1" xmlns="http://www.w3.org/2000/svg" xmlns:xlink="http://www.w3.org/1999/xlink" xml:space="preserve" xmlns:serif="http://www.serif.com/" style="fill-rule:evenodd;clip-rule:evenodd;stroke-miterlimit:1.5;"><g><g><path d="M43.7,56.952l-25.5,-0l-5.8,16.6l-12.4,-0l24.9,-70l12.1,-0l24.9,70l-12.4,-0l-5.8,-16.6Zm-4,-11.2l-8.7,-25l-8.8,25l17.5,-0Z" style="fill:#474b4f;fill-rule:nonzero;"/><path d="M100.5,74.952c-7.067,-0 -13.317,-1.5 -18.75,-4.5c-5.433,-3 -9.65,-7.25 -12.65,-12.75c-3,-5.5 -4.5,-11.884 -4.5,-19.15c0,-7.2 1.55,-13.55 4.65,-19.05c3.1,-5.5 7.4,-9.767 12.9,-12.8c5.5,-3.034 11.75,-4.55 18.75,-4.55c6.733,-0 12.767,1.366 18.1,4.1l-1.4,12.2c-2.867,-1.267 -5.617,-2.25 -8.25,-2.95c-2.633,-0.7 -5.483,-1.05 -8.55,-1.05c-7.133,-0 -12.617,2.2 -16.45,6.6c-3.833,4.4 -5.75,10.233 -5.75,17.5c0,7.266 1.883,13.1 5.65,17.5c3.767,4.4 9.183,6.6 16.25,6.6c3.133,-0 6.017,-0.334 8.65,-1c2.633,-0.667 5.45,-1.667 8.45,-3l1.4,12.2c-5.8,2.733 -11.967,4.1 -18.5,4.1Z" style="fill:#474b4f;fill-rule:nonzero;"/><path d="M160.5,74.952c-7.067,-0 -13.317,-1.5 -18.75,-4.5c-5.433,-3 -9.65,-7.25 -12.65,-12.75c-3,-5.5 -4.5,-11.884 -4.5,-19.15c0,-7.2 1.55,-13.55 4.65,-19.05c3.1,-5.5 7.4,-9.767 12.9,-12.8c5.5,-3.034 11.75,-4.55 18.75,-4.55c6.733,-0 12.767,1.366 18.1,4.1l-1.4,12.2c-2.867,-1.267 -5.617,-2.25 -8.25,-2.95c-2.633,-0.7 -5.483,-1.05 -8.55,-1.05c-7.133,-0 -12.617,2.2 -16.45,6.6c-3.833,4.4 -5.75,10.233 -5.75,17.5c0,7.266 1.883,13.1 5.65,17.5c3.767,4.4 9.183,6.6 16.25,6.6c3.133,-0 6.017,-0.334 8.65,-1c2.633,-0.667 5.45,-1.667 8.45,-3l1.4,12.2c-5.8,2.733 -11.967,4.1 -18.5,4.1Z" style="fill:#474b4f;fill-rule:nonzero;"/><path d="M189.7,3.552l44.8,-0l-0,12.4l-31.7,-0l-0,14.9l24.6,-0l-0,12.4l-24.6,-0l-0,17.9l32.7,-0l-0,12.4l-45.8,-0l-0,-70Z" style="fill:#474b4f;fill-rule:nonzero;"/><path d="M246.5,3.552l24.9,-0c16.6,-0 24.9,7.533 24.9,22.6c0,7.8 -2.1,13.6 -6.3,17.4c-4.2,3.8 -10.3,5.7 -18.3,5.7l-12.4,-0l0,24.3l-12.8,-0l0,-70Zm23.7,35c4.4,-0 7.683,-1 9.85,-3c2.167,-2 3.25,-5.067 3.25,-9.2c0,-4.134 -1.1,-7.184 -3.3,-9.15c-2.2,-1.967 -5.567,-2.95 -10.1,-2.95l-10.6,-0l0,24.3l10.9,-0Z" style="fill:#474b4f;fill-rule:nonzero;"/><path d="M319.7,15.952l-19.8,-0l0,-12.4l52.4,-0l0,12.4l-19.8,-0l0,57.6l-12.8,-0l0,-57.6Z" style="fill:#474b4f;fill-rule:nonzero;"/><path d="M361.5,3.552l44.8,-0l-0,12.4l-31.7,-0l-0,14.9l24.6,-0l-0,12.4l-24.6,-0l-0,17.9l32.7,-0l-0,12.4l-45.8,-0l-0,-70Z" style="fill:#474b4f;fill-rule:nonzero;"/><path d="M478.509,34.051l0.491,4.501c-0,7.2 -1.467,13.433 -4.4,18.7c-2.933,5.266 -7.017,9.3 -12.25,12.1c-5.233,2.8 -11.183,4.2 -17.85,4.2l-26.2,-0l-0,-70l26.2,-0c6.667,-0 12.617,1.4 17.85,4.2c4.292,2.296 7.81,5.422 10.32,9.541l-10.209,8.355c-0.682,-1.665 -1.61,-3.136 -2.711,-4.446c-3.5,-4.167 -8.583,-6.25 -15.25,-6.25l-13.4,-0l-0,47.2l13.4,-0c6.667,-0 11.75,-2.084 15.25,-6.25c2.275,-2.709 3.811,-6.101 4.517,-10.195l14.242,-11.656Z" style="fill:#474b4f;"/><path d="M437.804,32.222l14.12,12.819l45.854,-37.529" style="fill:none;stroke:#474b4f;stroke-width:8.33px;"/></g></g></svg>